<svg width="80" height="80" viewBox="0 0 80 80" fill="none" xmlns="http://www.w3.org/2000/svg">
<path d="M43.0608 20.2749L45.3751 17.9955C49.9198 13.5195 57.3185 13.4087 61.8894 17.859C63.6213 19.549 64.7724 21.7309 65.1807 24.0982C65.5889 26.4655 65.2339 28.8993 64.1656 31.0578C63.6532 32.0889 63.4806 33.2518 63.6716 34.3842C63.863 35.5166 64.4084 36.5619 65.2321 37.3741C66.7468 35.8789 67.9473 34.1044 68.7653 32.152C69.5834 30.1997 70.003 28.1077 70 25.9957C69.9967 23.8836 69.5715 21.7928 68.7478 19.8428C67.9241 17.8927 66.7183 16.1216 65.1994 14.6306C58.8079 8.3712 48.4333 8.49576 42.0597 14.7728L20.0006 36.498L18.1871 34.712C13.5654 30.1601 13.5359 22.7195 18.2392 18.2485C19.9801 16.5986 22.1981 15.5216 24.5871 15.1661C26.976 14.8105 29.418 15.1941 31.5762 16.2637C32.5613 16.7609 33.6807 16.9387 34.7745 16.7718C35.8683 16.605 36.8806 16.102 37.6668 15.3346L37.7231 15.2795C37.7406 15.2624 37.7544 15.242 37.7639 15.2196C37.7734 15.1972 37.7783 15.1731 37.7783 15.1488C37.7783 15.1245 37.7734 15.1004 37.7639 15.078C37.7544 15.0556 37.7406 15.0352 37.7231 15.0181C34.6869 12.1029 30.6184 10.4655 26.3782 10.4523C22.1381 10.439 18.059 12.051 15.0042 14.9472C8.42374 21.2037 8.44726 31.6076 14.9149 37.9775L36.9675 59.6969L34.6249 62.0041C30.0803 66.4801 22.6812 66.5909 18.1106 62.1407C16.3787 60.4507 15.2277 58.2687 14.8194 55.9015C14.4111 53.5342 14.766 51.1004 15.8341 48.9419C16.3466 47.9108 16.5193 46.7478 16.3282 45.6156C16.137 44.4832 15.5915 43.4377 14.7679 42.6256C13.2533 44.1209 12.0527 45.8952 11.2346 47.8475C10.4165 49.8 9.99698 51.8918 10 54.004C10.0031 56.116 10.4286 58.2069 11.2523 60.1568C12.076 62.107 13.2817 63.8781 14.8006 65.369C21.1918 71.6287 31.5667 71.5045 37.9403 65.2272L60.028 43.4729L61.8483 45.2657C66.393 49.7417 66.5055 57.0287 61.987 61.5302C60.2711 63.2362 58.0556 64.3696 55.6521 64.772C53.2485 65.1741 50.7774 64.8245 48.5857 63.7723C47.5385 63.2673 46.3571 63.097 45.207 63.2858C44.0568 63.4742 42.995 64.012 42.1704 64.8239C43.6887 66.3157 45.4903 67.4983 47.4724 68.304C49.4549 69.1097 51.5788 69.5229 53.7234 69.52C55.8678 69.5168 57.9908 69.0976 59.9706 68.2864C61.9507 67.4751 63.749 66.2875 65.2628 64.7916C71.6185 58.497 71.4921 48.2789 65.1188 42.0019L43.0608 20.2749ZM40.2605 56.4522L23.2945 39.7425L39.7666 23.5196L56.7326 40.2293L40.2605 56.4522Z" fill="#2354B1"/>
<g clip-path="url(#clip0)">
<path d="M42.9999 35C42.9999 33.3431 41.6568 32 39.9999 32C38.343 32 36.9999 33.3431 36.9999 35C36.9999 36.6569 38.343 38 39.9999 38C41.6568 38 42.9999 36.6569 42.9999 35ZM39.2996 39.5344C37.4455 38.3994 34.4424 38.0875 32.9311 38.0016C32.4233 37.9728 31.9999 38.3597 31.9999 38.8481V45.8106C31.9999 46.2584 32.3621 46.6319 32.8277 46.6559C34.1921 46.7275 36.9524 46.9897 38.8602 47.9506C39.153 48.0981 39.5002 47.8972 39.5002 47.5797V39.8925C39.4999 39.7466 39.4277 39.6128 39.2996 39.5344ZM47.0686 38.0016C45.5577 38.0872 42.5543 38.3994 40.7005 39.5344C40.5724 39.6128 40.5002 39.7519 40.5002 39.8978V47.5787C40.5002 47.8972 40.8483 48.0984 41.1421 47.9506C43.0496 46.9906 45.8083 46.7284 47.1724 46.6569C47.638 46.6325 48.0002 46.2591 48.0002 45.8112V38.8481C47.9999 38.3597 47.5764 37.9728 47.0686 38.0016Z" fill="#2354B1"/>
</g>
<defs>
<clipPath id="clip0">
<rect width="16" height="16" fill="white" transform="translate(31.9999 32)"/>
</clipPath>
</defs>
</svg>
